<?xml version="1.0" standalone="no"?><!DOCTYPE svg PUBLIC "-//W3C//DTD SVG 1.1//EN" "http://www.w3.org/Graphics/SVG/1.1/DTD/svg11.dtd"><svg t="1742824676168" class="icon" viewBox="0 0 1024 1024" version="1.1" xmlns="http://www.w3.org/2000/svg" p-id="10420" xmlns:xlink="http://www.w3.org/1999/xlink" width="200" height="200"><path d="M358.399331 1023.997844a338.188762 338.188762 0 0 1-36.648344-2.155785A317.708805 317.708805 0 0 1 44.732623 759.644717a327.140364 327.140364 0 0 1 144.43759-323.367741V169.768064a170.037537 170.037537 0 0 1 339.805601 0v265.43102A318.786697 318.786697 0 0 1 358.399331 1023.997844z m0-970.103221a116.142913 116.142913 0 0 0-115.873441 115.873441v280.521514a26.947312 26.947312 0 0 1-13.204182 23.444162 274.05416 274.05416 0 0 0-132.041828 277.018364 265.161547 265.161547 0 1 0 390.73602-276.748891 26.947312 26.947312 0 0 1-13.473656-23.713635V169.768064A116.142913 116.142913 0 0 0 358.938277 53.894623z" p-id="10421"></path><path d="M396.933986 550.264105V169.498591a37.995709 37.995709 0 0 0-37.995709-37.99571 37.995709 37.995709 0 0 0-37.726237 37.99571v380.765514a153.330204 153.330204 0 0 0-115.334494 159.528085 155.485988 155.485988 0 0 0 150.904946 142.551279 153.330204 153.330204 0 0 0 40.151494-302.079364zM956.62965 107.789247H645.118727a26.947312 26.947312 0 1 1 0-53.894624H956.62965a26.947312 26.947312 0 0 1 0 53.894624zM956.62965 326.601418H672.066039a26.947312 26.947312 0 0 1 0-53.894624H956.62965a26.947312 26.947312 0 0 1 0 53.894624zM956.62965 544.605169h-176.774365a26.947312 26.947312 0 0 1 0-53.894623H956.62965a26.947312 26.947312 0 0 1 0 53.894623zM956.62965 762.878394h-176.774365a26.947312 26.947312 0 0 1 0-53.894623H956.62965a26.947312 26.947312 0 0 1 0 53.894623zM956.62965 980.882146h-257.6163a26.947312 26.947312 0 0 1 0-53.894624H956.62965a26.947312 26.947312 0 0 1 0 53.894624z" p-id="10422"></path></svg>